<?xml version="1.0" encoding="utf-8"?>
<!-- Generator: Adobe Illustrator 22.0.1, SVG Export Plug-In . SVG Version: 6.00 Build 0)  -->
<svg version="1.1" xmlns="http://www.w3.org/2000/svg" xmlns:xlink="http://www.w3.org/1999/xlink" x="0px" y="0px"
	 viewBox="0 0 330.5 330.5" style="enable-background:new 0 0 330.5 330.5;" xml:space="preserve">
<style type="text/css">
	.st0{fill:none;stroke:#000000;stroke-width:30;stroke-linecap:round;stroke-miterlimit:10;}
	.st1{fill:#A74315;stroke:#A74315;stroke-width:14;stroke-miterlimit:10;}
	.st2{fill:#E65E25;stroke:#E65E25;stroke-width:14;stroke-miterlimit:10;}
	.st3{stroke:#000000;stroke-width:8;stroke-miterlimit:10;}
	.st4{stroke:#FFFFFF;stroke-width:8;stroke-miterlimit:10;}
	.st5{fill:none;stroke:#000000;stroke-width:8;stroke-linecap:round;stroke-miterlimit:10;}
	.st6{stroke:#000000;stroke-width:8;stroke-linecap:round;stroke-miterlimit:10;}
</style>
<g id="Layer_1">
	<line class="st0" x1="42.8" y1="260" x2="98.6" y2="168"/>
	<line class="st0" x1="287.7" y1="264.7" x2="231.9" y2="172.6"/>
	<ellipse class="st1" cx="165.3" cy="175.7" rx="146.9" ry="105.2"/>
	<line class="st1" x1="18.4" y1="182.7" x2="18.4" y2="141.2"/>
	<line class="st1" x1="312.2" y1="181.7" x2="312.2" y2="149.2"/>
	<ellipse class="st2" cx="165.3" cy="150.3" rx="146.9" ry="102.2"/>
</g>
<g id="Layer_2">
	<ellipse class="st3" cx="170.5" cy="152.6" rx="82.1" ry="68.9"/>
	<ellipse class="st4" cx="170.1" cy="152.6" rx="60.6" ry="50.9"/>
	<polyline class="st5" points="62.7,96.9 62.7,122 62.7,162.1 62.7,195.1 	"/>
	<path class="st5" d="M44.2,96.9v21.6c0,0.7,0.3,7.3,6.2,11.3c5.5,3.7,11.5,2.2,12.3,2"/>
	<path class="st5" d="M81.2,96.9v21.6c0,0.7-0.3,7.3-6.2,11.3c-5.5,3.7-11.5,2.2-12.3,2"/>
	<polyline class="st5" points="278.7,133.4 278.7,151.3 278.7,180 278.7,203.6 	"/>
	<ellipse class="st6" cx="278.7" cy="118" rx="12.1" ry="20.9"/>
	<line class="st5" x1="50.3" y1="125.8" x2="75.8" y2="125.8"/>
</g>
</svg>
