<?xml version="1.0" encoding="utf-8"?>
<!-- Generator: Adobe Illustrator 22.1.0, SVG Export Plug-In . SVG Version: 6.00 Build 0)  -->
<svg version="1.1" id="linework" xmlns="http://www.w3.org/2000/svg" xmlns:xlink="http://www.w3.org/1999/xlink" x="0px" y="0px"
	 viewBox="0 0 686 665" style="enable-background:new 0 0 686 665;" xml:space="preserve">
<style type="text/css">
	.st0{fill:#74E5FF;stroke:#000000;stroke-width:14;stroke-miterlimit:10;}
	.st1{stroke:#000000;stroke-width:3;stroke-miterlimit:10;}
</style>
<circle class="st0" cx="338.5" cy="326.8" r="302.5"/>
<path class="st1" d="M375.9,627.1c18.7-2.3,41.7-6.9,66.9-16.2c38.8-14.3,67.6-34,86.6-49.4c0.5-1.9,1.1-3.9,1.6-5.8"/>
<path class="st1" d="M594.2,165c14.1,22.6,35.8,64.2,41.8,120.5c4,37.4-0.2,68.9-5,90.8"/>
<path class="st1" d="M209.3,433.3l25,23.7l61.7,30l16,19l14,11.7l4.3,1.3l6-5l-11.7-2.7l-9.7-15l2-9.7l-3.3-7l-24-3.5l8.7-19.2
	l0.3-3.3l-10.3-2.3L285,457l0.3,5l-6.7,1.7L257,456l-2-6.3l-6.3-7.3l6.3-32.7l30.7-3l5.3,4l4-1v-5l16.3,1.7l3.3,2.7l7-0.7l10.7,23.3
	l4-0.3l1.7-6.3l-7.7-13.7l4.3-16l20.7-16V369l8-8.3V354l12.7-7.3V342l6-10.7l12.3-9.7v3.8l-4.7,8.5l4.7,0.7l19.3-17.7l-2-3
	l-11.7,4.7l-3.3-7.7l1.7-5.7h-7.7l-9.3,9.3l-5.7,0.7l9.3-14l20.3-6.3l12-11.7l-14.3-15l-6-1.7l-16.7-19.3l-2.3,9.3l-6,0.3l-4-7.3
	l-1-5.3l-20-4l0.3,10L343,254l5.7,8.7v13.7l-5,2.7l-1.3,15l-6,2l-8.3-12l-0.3-10.7l-6.3,0.7l-18.7-12.3l1.3-9.7l-4.7-5l35-31.3v-12
	l-6,9.3l-8.3-1.7l1.3-4l-3-1.7l-2.3-15l-4.7,4.3l3.3,7.3l-1.3,5.3l-20-2.3L291,200l-10.7-0.7l-19.3-26l-15.3-4.3l-3.7-30.7l-3.7-3.7
	h-13v3.3c0,0-4.7,3-5.7,3s-6-4.3-6-4.3l-4.3,4v7.7l-5,3L195,146l-7.3,4.7l-5.7,9.7l3,7.3l-14.3,0.3l12.3,3.7l20-0.3l-11.7,4.7
	l10.7,3.7l2,18.7l-2.3,8.7l3.3,2l-9.3,39.7l3.3,4.3l0.3,19.7l-4.7-4l-20,35.7l-0.7,40l3.7,6l4,28l-3,6l4.7,3l2.3,4.7v8.3l7.3,12.3
	l2-2.3l-5-9l-3.3-30l1.7-6.7l6,3l6,35.3l11.7,20.3L209.3,433.3z"/>
<path class="st1" d="M375.9,627.1c2.6-6.7,5.2-13.4,7.8-20.1v-4.7l-20.3-4.7l-9-13l-24-15.7v-7.3l7.3-5l-4.3-2.7l0.3-6l12.3-8.3
	l1.3-2.7l4.7-3.3l0.3-10.7l-7-7.3l9,3l7-13.7h9.3l11-8.7v14.3l4.7-0.7v-6.3l10.3-6l4.3,4.7l20-3l6-3h5.7l2.7,4.3l30,8.3l12.7-1.3
	l16.7,10.3v7.3l46.7-11.7l13,1v9.3l-25,34c0,1.2,0.1,2.3,0.1,3.5"/>
<polygon class="st1" points="370.7,173 376.4,178.5 387.2,194.5 395.4,194.5 396.7,201.5 394.9,208.3 401.2,215 413.2,227 
	424.2,231 427.9,235.5 433.7,231.5 429.2,220.8 423.4,218 423.7,204.3 428.4,199.8 426.2,186.3 431.2,184 432.2,168.3 423.7,166.5 
	417.3,161 415.2,150.5 400.9,147 390.7,133.5 383.9,141.3 377.4,140.3 381.9,133.5 375.7,133.5 373.4,134.7 368.2,134.7 365.4,142 
	355.2,144.8 355.2,153 355.2,156.8 349.7,161 356.7,163.5 356.7,168 359.4,172.3 "/>
<path class="st1" d="M569.7,131.8c-18.2-21.4-66.4-72.3-147.3-95.7c-99.7-28.7-182.2,3.6-205.9,13.8c3.1-0.1,6.2-0.3,9.3-0.4
	c1,1.1,1.9,2.2,2.9,3.3l10.8-6.8l3.5,6.8l-15.3,13.8L217.4,73l1.3,8.8l-7.3,3.3l1.3,5.3h-6.8l-9,10l2.8,11.3h12.5l-4.5,17.8h4.5
	l26-26.5l0.5-7.8l9.5-9.5l9.3,2.1l7.8-9.1l17.8-3l1.5-12h21.8l4.8-5.5l18.3,2l-1.8,7c0,0,10,6,10.8,5.5s9.5-4.5,9.5-4.5l11,0.3
	l7.8-4.5l19.3,2.3l2.5,4l13-3l5.3-7.3L427.2,79l12.3,2.5v6.1l10-2.6l6.3,5.5l7.5,0.3l3.5,3v5.5l-9.5,7l-3.8-8.5l-9.3-3.5l-0.5,12
	l20.8,16.3l11.3,8.8l13.3,22.3l14.8,5.5v-11.3l11.5,0.3l-31.8-21.8l-13.5-5.3l-0.8-5.5l6.3-1.3l5.5,6.3l7,2.8l3.3-4l-4.8-3.3
	l4.5-4.8l5.3,2l0.3,6.5l5,1.5l9.8,0.5l1.5,3.8l-5.5,1l5.8,8.2l2.3,2.6l5.8,0.5l5.5,18.5l-7.5,0.8l-5.5-4.3l-2.5,4l6.8,3.5l11,1.8
	v7.3l7.3,7.5v5.8c0,0,10.3,7.3,9.3,7.3s0.6,8.5,0.1,8.8s0.1,4.5,0.1,4.5l-4.2,2.5l4.2,6.3l3.6-4l12,4l3.3,3v7.3l-6.5,11l1,6l5.5,3.5
	l3.5,5.3l7.8,9l4.5-1.5v-6.8l2.8-3v-5.8l-1.5-4.3l1.5-3.3l-7-9.5c0,0-1-9.8-2.3-9.8s-3.5-3-3.5-3l1.8-9.8l-4-9.8l0.8-3.5l9.3-2.5
	l0.3-4.3l-10.3,1.3l-6-3.5l0.5-3.3l6.5-0.8l7-6l4.3,0.5c0,0,1.5,1.8,1.5,2.5s3.8-1,3.8-1v-3l-8.3-1.5l-2-11.8l2.3-4.5l0.5-5.3
	c-2.1-1.6-4.3-3.2-6.4-4.8C570.7,136.8,570.2,134.3,569.7,131.8z"/>
<path class="st1" d="M594.2,165c-0.5,1.3-0.9,2.6-1.4,4c2.8,5.2,5.5,10.3,8.3,15.5l-4.2,2.5l2.2,5.7h4.7l-2.3,20.7l-8.7-6.7
	l-3.3,1.7l2,9.7l0.3,14.3l0.7,14l-3,10.4l-4.2,7.9l1.8,18l7.4,6.3l-1.8,29l3.3,23l-1.6,8l11.9,10.3V375l6.7,11l7.7-1.7l6.3,4.7h4
	v-12.7c2.7-5.2,5.4-10.4,8.1-15.5"/>
</svg>
