<?xml version="1.0" encoding="utf-8"?>
<!-- Generator: Adobe Illustrator 22.0.1, SVG Export Plug-In . SVG Version: 6.00 Build 0)  -->
<svg version="1.1" xmlns="http://www.w3.org/2000/svg" xmlns:xlink="http://www.w3.org/1999/xlink" x="0px" y="0px"
	 viewBox="0 0 410 410" style="enable-background:new 0 0 410 410;" xml:space="preserve">
<style type="text/css">
	.st0{stroke:#000000;stroke-width:12;stroke-miterlimit:10;}
	.st1{fill:none;stroke:#000000;stroke-width:22;stroke-miterlimit:10;}
	.st2{fill:#4C7734;stroke:#4C7734;stroke-width:12;stroke-miterlimit:10;}
	.st3{fill:#C78825;stroke:#C78825;stroke-width:12;stroke-miterlimit:10;}
	.st4{fill:#7FBB42;stroke:#7FBB42;stroke-width:12;stroke-miterlimit:10;}
	.st5{fill:#BCCE32;}
	.st6{fill:#7DBA42;stroke:#000000;stroke-width:12;stroke-miterlimit:10;}
	.st7{fill:none;stroke:#000000;stroke-width:18;stroke-miterlimit:10;}
</style>
<g id="svg">
</g>
<g id="layer">
	<ellipse class="st0" cx="187.8" cy="350.2" rx="134.6" ry="46"/>
	<circle class="st1" cx="359.8" cy="237.5" r="34.5"/>
	<ellipse class="st2" cx="187.8" cy="142.7" rx="158.2" ry="46"/>
	<ellipse class="st3" cx="185.6" cy="170.3" rx="151.9" ry="46"/>
	<path class="st4" d="M272,512"/>
	<path class="st5" d="M349.6,146.5c0.1,10.8-0.3,26.7-3.1,45.5c-3.8,25.2-10.7,71.3-44.9,111.3c-9.5,11.2-24.4,28.3-50,39.1
		c-21.3,9.1-40,9.5-58,9.9c-18.2,0.4-41.8,0.9-68.6-10.2c-26.5-11-42.5-27.7-49.6-35.2C25.9,255,26.9,172,28.2,148.2
		c36,12.6,92.9,27.6,163.8,26.8C259.9,174.2,314.4,159.2,349.6,146.5z"/>
	<path class="st6" d="M469.6,70.5"/>
	<path class="st7" d="M349.6,130.3c0.1,11.6-0.3,28.5-3.1,48.6c-3.8,26.9-10.7,76.1-44.9,118.8c-9.5,11.9-24.4,30.2-50,41.8
		c-21.3,9.7-40,10.1-58,10.5c-18.2,0.4-41.8,1-68.6-10.9c-26.5-11.7-42.5-29.5-49.6-37.6c-49.6-55.5-48.6-144.1-47.3-169.4"/>
	<path class="st7" d="M141,38.1c2.2,3,6.7,10.2,7.6,20.5c1,10.9-2.7,19.1-4.4,22.4c-1.5,4.8-3.6,13.2-2.5,23.7
		c0.9,9.3,4,16.5,6.2,20.8"/>
	<path class="st7" d="M214.7,35c2.2,3,6.7,10.2,7.6,20.5c1,10.9-2.7,19.1-4.4,22.4c-1.5,4.8-3.6,13.2-2.5,23.7
		c0.9,9.3,4,16.5,6.2,20.8"/>
	<path class="st7" d="M177.8,15.4c2.2,3,6.7,10.2,7.6,20.5c1,10.9-2.7,19.1-4.4,22.4c-1.5,4.8-3.6,13.2-2.5,23.7
		c0.9,9.3,4,16.5,6.2,20.8"/>
</g>
</svg>
