<?xml version="1.0" encoding="utf-8"?>
<!-- Generator: Adobe Illustrator 22.1.0, SVG Export Plug-In . SVG Version: 6.00 Build 0)  -->
<svg version="1.1" id="Layer_1" xmlns="http://www.w3.org/2000/svg" xmlns:xlink="http://www.w3.org/1999/xlink" x="0px" y="0px"
	 viewBox="0 0 400 400" style="enable-background:new 0 0 400 400;" xml:space="preserve">
<style type="text/css">
	.st0{fill:#FFA709;}
	.st1{fill:none;stroke:#000000;stroke-width:14;stroke-miterlimit:10;}
	.st2{stroke:#000000;stroke-width:14;stroke-miterlimit:10;}
	.st3{fill:#FFF218;stroke:#FCEE2C;stroke-width:14;stroke-miterlimit:10;}
	.st4{fill:#FED403;stroke:#FFD400;stroke-width:14;stroke-miterlimit:10;}
</style>
<path class="st0" d="M91,150.7c1.6,9.5,8.9,46.4,42.7,73.7c26.7,21.5,55.2,25.1,66.1,25.9c8.4-0.4,46-2.9,76.2-33.9
	c26.9-27.5,30.9-60,31.7-69.3C235.4,148.2,163.2,149.4,91,150.7z"/>
<g id="layer">
	<path class="st1" d="M470,148"/>
	<line class="st1" x1="199.8" y1="256" x2="199.8" y2="336"/>
	<ellipse class="st2" cx="199.8" cy="343" rx="71.9" ry="15.5"/>
	<path class="st3" d="M475,87.5"/>
	<path class="st1" d="M296.1,62.5c6.3,12.1,16.7,36.1,16.4,67.5c-0.1,14.4-0.5,50.6-27.8,81.8c-3.4,3.9-29.2,32.4-71.6,37.6
		c-10.6,1.3-19.5,0.8-25.6,0.1c-49.5-5.7-77.2-43.8-80-47.8c-1-1.5-5-7.1-8.5-14.3c-22.1-45-4.7-101.6,3.4-123.9L296.1,62.5z"/>
	<ellipse class="st4" cx="200.4" cy="148" rx="97.5" ry="12.7"/>
</g>
</svg>
