<?xml version="1.0" standalone="no"?>
<!DOCTYPE svg PUBLIC "-//W3C//DTD SVG 20010904//EN"
 "http://www.w3.org/TR/2001/REC-SVG-20010904/DTD/svg10.dtd">
<svg version="1.0" xmlns="http://www.w3.org/2000/svg"
 width="960.000000pt" height="480.000000pt" viewBox="0 0 960.000000 480.000000"
 preserveAspectRatio="xMidYMid meet">
<metadata>
Created by potrace 1.15, written by Peter Selinger 2001-2017
</metadata>
<g transform="translate(0.000000,480.000000) scale(0.100000,-0.100000)"
fill="#fff" stroke="none">
<path d="M4662 4489 c-189 -22 -381 -91 -540 -195 -71 -47 -86 -54 -57 -28
l40 36 -42 -28 c-24 -16 -43 -34 -43 -40 0 -5 -15 -23 -32 -40 l-33 -29 30 34
30 35 -40 -31 c-41 -32 -109 -102 -135 -139 -8 -11 -3 -7 12 8 47 48 42 31 -8
-27 -26 -30 -53 -55 -60 -55 -14 0 -27 -28 -19 -40 3 -5 0 -12 -6 -16 -8 -5
-9 -3 -4 6 6 9 4 11 -4 6 -7 -5 -10 -14 -7 -22 3 -7 0 -16 -6 -20 -7 -5 -8 -2
-3 7 8 12 6 12 -8 0 -10 -8 -17 -21 -15 -30 3 -20 -27 -77 -38 -73 -4 2 -12
-6 -16 -18 -5 -13 -4 -19 2 -15 6 3 10 3 10 0 0 -10 -30 -65 -36 -65 -3 0 -2
6 2 13 5 9 3 9 -7 -1 -10 -10 -11 -15 -2 -20 8 -5 9 -13 3 -22 -6 -8 -10 -10
-10 -5 0 6 -5 3 -10 -5 -5 -8 -9 -22 -9 -30 0 -10 3 -9 10 5 8 17 9 17 4 -5
-3 -14 -14 -59 -25 -101 -40 -155 -44 -394 -9 -542 6 -26 8 -51 5 -54 -3 -4
-6 3 -6 15 0 11 -5 24 -12 28 -7 5 -9 2 -6 -7 3 -8 14 -43 23 -77 10 -33 20
-61 24 -60 18 2 24 -3 12 -11 -10 -7 -11 -12 -1 -27 10 -16 11 -16 6 -1 -10
31 5 18 20 -18 8 -20 12 -41 8 -47 -4 -6 -3 -8 4 -4 10 6 28 -30 24 -46 -1 -5
1 -8 5 -8 5 0 9 -12 10 -26 0 -15 9 -34 18 -43 12 -10 15 -11 10 -2 -5 9 -4
12 3 8 5 -4 8 -16 5 -27 -3 -12 0 -20 6 -20 7 0 9 6 6 13 -4 6 2 1 13 -13 11
-13 18 -28 16 -32 -3 -4 0 -16 6 -25 10 -16 11 -16 5 2 -3 12 5 6 21 -15 15
-19 76 -83 135 -142 60 -59 109 -111 109 -115 0 -5 10 -14 23 -22 l22 -14 -20
23 -20 23 27 -18 c15 -9 26 -21 23 -25 -3 -5 0 -12 6 -16 8 -5 9 -3 4 6 -5 8
-3 11 6 8 8 -3 14 -10 14 -16 0 -5 4 -14 9 -19 5 -5 6 -3 2 5 -11 18 -6 16 85
-32 172 -91 359 -136 570 -136 210 0 392 44 568 136 90 47 96 50 85 33 -3 -6
5 -3 20 6 31 20 35 30 6 15 -35 -19 -22 -4 23 25 40 27 41 27 22 4 -11 -13 47
42 128 123 82 82 152 148 156 148 11 0 23 29 17 39 -3 3 5 18 16 31 11 14 17
19 13 13 -3 -7 -1 -13 6 -13 6 0 9 8 6 20 -3 11 0 23 5 27 7 4 8 1 3 -8 -7
-12 -6 -12 9 0 10 8 15 23 13 33 -3 10 -1 16 4 12 5 -3 10 1 11 8 2 25 4 33
12 56 4 13 10 21 13 18 7 -6 32 24 33 38 0 6 -7 1 -15 -10 -13 -17 -14 -16 -4
14 6 17 16 35 22 39 6 4 7 1 2 -8 -7 -12 -5 -12 6 -1 12 11 12 14 -1 22 -13 9
-8 14 11 12 4 -1 14 27 24 60 9 34 20 69 23 77 3 8 1 12 -5 8 -5 -3 -15 -31
-22 -61 -7 -31 -16 -58 -20 -60 -4 -3 3 34 16 82 56 211 46 485 -26 694 -14
41 -16 58 -8 61 9 3 8 8 -2 18 -9 9 -11 9 -7 2 4 -7 5 -13 2 -13 -6 0 -36 55
-36 65 0 3 5 3 10 0 6 -4 5 4 -1 19 -7 14 -16 23 -20 20 -4 -2 -15 9 -24 27
-9 17 -12 28 -7 25 16 -10 2 32 -16 46 -13 11 -14 11 -7 -1 5 -9 4 -12 -3 -7
-6 4 -9 13 -6 20 3 8 0 17 -7 22 -8 5 -10 3 -4 -6 5 -9 4 -11 -4 -6 -6 4 -9
11 -6 16 8 13 -5 40 -20 40 -6 0 -20 10 -31 23 l-19 22 23 -19 c19 -17 22 -17
16 -3 -3 9 -10 17 -15 17 -12 0 -81 62 -75 67 3 3 17 -8 31 -23 l27 -29 -20
30 c-20 30 -94 103 -142 140 -21 17 -21 15 5 -15 l30 -35 -32 29 c-18 17 -33
35 -33 40 0 6 -19 24 -43 40 l-42 28 40 -36 c29 -26 14 -19 -57 28 -241 157
-535 228 -816 195z"/>
<path d="M1705 3590 c-105 -14 -240 -56 -333 -105 -45 -24 -80 -39 -77 -32 4
7 -3 0 -15 -15 -21 -28 -48 -40 -34 -15 16 26 -126 -99 -162 -144 -15 -19 6
-2 47 37 41 38 83 76 94 84 11 8 -6 -10 -37 -39 -31 -28 -81 -78 -109 -109
-29 -31 -47 -49 -40 -39 9 11 10 17 2 17 -10 0 -13 -6 -15 -40 -1 -8 -11 -19
-24 -25 -14 -6 -21 -17 -20 -30 2 -12 -2 -19 -10 -17 -13 2 -37 -46 -27 -56 2
-3 -3 -11 -13 -19 -9 -8 -12 -12 -6 -9 6 3 -3 -32 -20 -78 -32 -88 -50 -111
-22 -30 9 26 14 49 12 51 -8 9 -30 -74 -32 -117 -1 -25 -6 -91 -13 -146 -17
-147 3 -299 57 -442 14 -36 16 -52 8 -56 -6 -2 -3 -5 8 -5 13 -1 17 -6 13 -21
-3 -11 -1 -18 3 -15 12 8 28 -24 23 -45 -2 -9 4 -23 13 -31 15 -12 16 -12 9 0
-5 9 -4 12 3 8 5 -4 8 -16 5 -27 -3 -12 0 -20 6 -20 7 0 9 5 5 12 -4 7 -3 8 5
4 6 -4 9 -11 6 -16 -7 -12 5 -40 17 -40 6 0 5 7 -2 18 -7 9 3 -1 23 -23 41
-46 51 -71 11 -28 l-27 28 26 -35 c13 -19 27 -33 30 -30 7 7 57 -40 54 -52 -1
-5 14 -21 33 -35 l35 -25 -30 26 c-16 14 -25 26 -20 26 6 0 39 -27 73 -60 35
-33 66 -60 70 -60 4 0 -4 10 -18 21 -24 20 -24 20 10 0 160 -98 344 -151 527
-151 99 0 260 30 346 65 33 14 64 22 70 18 5 -3 8 -2 4 3 -3 5 22 24 55 42 32
18 56 27 53 20 -4 -7 3 -2 16 12 13 15 35 35 49 45 l25 20 -25 -29 -25 -29 27
19 c15 10 28 24 28 29 0 15 123 135 137 135 13 0 35 33 31 47 -2 9 41 83 49
83 2 0 1 -4 -2 -10 -3 -5 -1 -10 4 -10 6 0 12 8 13 18 4 53 17 82 36 83 10 0
12 3 5 5 -9 4 -7 17 6 47 90 211 92 496 5 721 -5 13 -4 17 4 12 8 -5 10 -1 5
11 -11 30 -39 73 -45 68 -2 -3 -4 5 -4 18 1 12 -4 21 -10 20 -5 -1 -16 7 -23
19 -7 11 -8 17 -2 13 16 -9 13 7 -6 30 -13 16 -15 17 -10 3 9 -26 4 -22 -23
15 -14 18 -16 26 -7 18 9 -7 17 -10 17 -5 -1 5 -15 18 -32 29 -17 11 -34 27
-36 35 -3 8 5 4 17 -10 21 -24 22 -24 11 -2 -6 13 -19 26 -28 29 -24 8 -82 65
-76 74 2 4 -10 17 -28 29 l-33 22 30 -26 c17 -14 26 -26 20 -26 -5 1 -28 17
-50 36 -22 20 -31 32 -20 28 11 -4 17 -4 13 1 -4 4 -18 8 -30 9 -13 1 -22 7
-21 13 1 6 -5 10 -15 9 -9 0 -17 4 -17 11 0 6 -4 15 -9 20 -5 5 -6 3 -2 -4 10
-18 -1 -16 -38 6 -17 10 -57 29 -88 41 -31 13 -55 27 -52 31 2 4 -1 11 -7 15
-8 5 -9 3 -4 -6 6 -10 2 -12 -16 -8 -136 31 -176 37 -254 41 -49 3 -121 2
-160 -3z"/>
<path d="M7660 3589 c-41 -5 -98 -16 -126 -24 -62 -18 -78 -19 -68 -3 4 7 3 8
-5 4 -6 -4 -9 -11 -6 -15 2 -5 -17 -16 -43 -26 -26 -10 -66 -28 -89 -41 -47
-27 -57 -30 -47 -11 4 7 3 9 -2 4 -5 -5 -9 -14 -9 -20 0 -7 -8 -11 -17 -11
-10 1 -16 -3 -15 -9 1 -6 -8 -12 -21 -13 -12 -1 -26 -5 -30 -9 -4 -5 2 -5 13
-1 11 4 17 5 15 3 -3 -2 -39 -33 -80 -68 -41 -36 -83 -68 -92 -71 -9 -4 -22
-17 -29 -30 -11 -22 -11 -22 8 -8 10 8 8 5 -5 -7 -13 -13 -20 -23 -16 -23 5 0
2 -6 -4 -12 -7 -7 -18 -13 -24 -13 -6 0 -13 -6 -16 -14 -3 -9 0 -11 9 -6 8 5
11 4 6 -1 -5 -5 -14 -9 -20 -9 -5 0 -12 -6 -15 -14 -3 -9 0 -11 8 -6 9 6 9 3
1 -14 -7 -11 -17 -20 -24 -18 -7 1 -12 -8 -11 -20 0 -13 -2 -21 -4 -18 -6 6
-37 -43 -47 -74 -5 -16 -4 -21 4 -17 7 5 7 -2 0 -24 -6 -16 -15 -28 -19 -25
-4 3 -15 -16 -24 -42 -19 -54 -19 -56 -7 -49 5 3 12 22 16 42 3 20 9 34 11 31
3 -3 -3 -33 -12 -68 -13 -48 -18 -103 -18 -219 0 -163 15 -251 64 -366 12 -26
18 -54 16 -61 -3 -8 -2 -11 3 -8 5 3 13 0 17 -6 6 -10 8 -20 13 -66 0 -7 6
-13 12 -13 5 0 7 5 4 10 -3 6 -4 10 -2 10 6 0 50 -72 52 -85 1 -5 3 -16 3 -23
1 -7 10 -16 21 -20 10 -4 56 -43 102 -87 46 -44 76 -74 66 -66 -9 8 -19 12
-21 10 -2 -2 8 -13 22 -23 14 -11 22 -14 17 -6 -5 8 -3 11 6 8 8 -3 13 -11 11
-17 -1 -7 1 -10 6 -7 5 3 26 -6 48 -19 21 -14 34 -25 29 -25 -6 0 -17 6 -25
12 -12 11 -12 10 0 -5 7 -10 19 -16 27 -13 18 7 64 -15 56 -27 -3 -6 -1 -7 4
-4 6 4 37 -4 70 -18 86 -35 247 -65 346 -65 151 0 294 33 434 102 38 18 73 33
80 33 6 0 15 4 20 9 5 5 2 6 -6 1 -10 -6 -12 -4 -7 4 5 7 14 10 22 7 7 -3 16
0 20 6 5 7 2 9 -7 4 -8 -4 -3 1 10 11 14 10 43 33 64 51 50 41 62 42 17 1
l-35 -31 33 23 c19 13 34 29 33 34 0 15 41 55 50 50 11 -7 62 62 55 73 -3 6 2
16 12 23 15 13 16 12 3 -3 -7 -10 -9 -18 -3 -18 12 0 24 28 17 40 -3 5 0 12 6
16 8 4 9 3 5 -4 -4 -7 -2 -12 5 -12 6 0 9 8 6 20 -3 11 0 23 5 27 7 4 8 1 3
-8 -7 -12 -6 -12 9 0 9 8 15 22 13 31 -5 21 11 53 23 45 4 -3 6 4 3 15 -4 15
0 20 13 20 13 0 15 3 7 8 -10 6 -10 12 3 28 8 10 12 12 8 4 -6 -13 -5 -13 7
-1 10 9 11 15 3 18 -8 3 -4 26 11 76 61 192 52 428 -26 630 -14 38 -15 47 -4
33 8 -11 15 -15 15 -9 0 5 -10 21 -22 35 -13 14 -24 36 -26 49 -1 13 -10 31
-19 39 -12 11 -14 12 -8 1 5 -9 4 -12 -3 -8 -5 4 -8 16 -5 27 3 12 0 20 -6 20
-7 0 -9 -6 -6 -12 4 -7 -2 -2 -13 12 -11 13 -18 28 -16 32 6 10 -16 51 -23 44
-3 -3 0 -14 7 -23 8 -10 -10 8 -39 39 -28 31 -78 81 -109 109 -31 29 -48 47
-37 39 11 -8 53 -46 94 -84 41 -39 62 -56 47 -37 -36 45 -178 170 -162 144 14
-25 -13 -13 -34 15 -12 15 -19 22 -16 16 3 -6 -38 11 -92 38 -164 83 -372 119
-552 97z"/>
<path d="M4167 1925 c-100 -16 -211 -46 -306 -81 -35 -14 -72 -22 -82 -19 -9
3 -20 1 -24 -4 -4 -7 1 -9 12 -5 10 3 -36 -22 -102 -56 -212 -109 -449 -283
-614 -453 -30 -31 -58 -54 -62 -52 -4 3 -19 -12 -35 -33 l-27 -37 34 30 34 30
-29 -32 c-17 -18 -35 -33 -43 -33 -7 0 -18 -10 -24 -22 l-12 -23 24 20 c12 11
6 -1 -15 -27 -21 -27 -45 -48 -52 -48 -8 0 -14 -5 -14 -11 0 -5 6 -7 13 -4 6
4 3 -1 -7 -9 -11 -9 -23 -16 -28 -16 -4 0 -8 -5 -8 -11 0 -8 6 -7 17 2 9 8 7
0 -7 -18 -13 -18 -30 -33 -37 -33 -7 0 -13 -5 -13 -11 0 -5 6 -7 13 -3 7 4 9
3 4 -2 -5 -5 -14 -9 -19 -9 -6 0 -13 -6 -16 -14 -3 -9 0 -11 8 -6 9 5 11 4 6
-3 -4 -7 -14 -12 -23 -12 -10 0 -14 -6 -10 -20 3 -11 0 -23 -5 -27 -7 -4 -8
-1 -3 8 8 12 6 12 -8 0 -10 -8 -16 -23 -15 -35 2 -12 -2 -20 -9 -19 -7 2 -10
-4 -6 -13 3 -9 0 -14 -8 -12 -9 2 -14 -5 -13 -19 0 -12 -3 -20 -7 -18 -9 6
-21 -24 -13 -36 3 -5 0 -9 -6 -9 -6 0 -9 -3 -7 -8 3 -4 -3 -23 -14 -42 -10
-19 -18 -31 -19 -25 0 11 -24 -23 -33 -48 -4 -11 -3 -16 3 -12 14 9 12 -6 -6
-35 -8 -14 -13 -17 -10 -7 10 31 -3 18 -19 -19 -19 -45 -19 -57 0 -24 17 30
19 24 4 -18 -6 -18 -16 -29 -22 -25 -6 3 -7 1 -3 -5 4 -6 -2 -41 -14 -78 -11
-36 -20 -68 -20 -70 0 -2 1048 -4 2330 -4 1282 0 2330 2 2330 4 0 2 -9 34 -20
70 -12 37 -18 72 -14 78 4 6 3 8 -3 5 -6 -4 -13 0 -16 7 -3 8 -1 16 5 18 8 3
8 10 -1 24 -10 15 -11 15 -7 2 10 -34 -3 -17 -24 28 -23 53 -24 58 -10 49 12
-8 2 20 -22 60 -10 17 -18 26 -18 20 -1 -5 -7 1 -14 15 -8 14 -12 28 -10 32 3
5 0 8 -6 8 -6 0 -9 4 -6 9 8 12 -4 42 -13 36 -4 -2 -7 6 -7 18 1 12 -5 22 -12
22 -17 0 -31 23 -25 44 2 10 -4 24 -13 32 -15 12 -16 12 -9 0 5 -9 4 -12 -3
-8 -5 4 -8 16 -5 27 3 12 0 20 -6 20 -7 0 -9 -4 -6 -10 3 -5 4 -10 2 -10 -2 0
-18 23 -35 51 -18 27 -27 47 -22 44 6 -3 10 -2 10 2 0 5 -10 13 -22 18 -13 6
-23 17 -24 25 -2 34 -5 40 -15 40 -8 0 -7 -6 2 -17 13 -16 12 -17 -3 -4 -10 7
-15 17 -12 22 6 10 -15 53 -23 45 -3 -3 0 -12 7 -21 7 -8 10 -15 8 -15 -3 0
-20 19 -38 43 -22 27 -26 35 -10 22 l23 -20 -12 23 c-6 12 -17 22 -24 22 -7 0
-29 17 -48 38 l-34 37 39 -35 40 -35 -33 43 c-18 23 -36 40 -40 38 -8 -6 -162
146 -158 156 1 3 -18 23 -43 45 -61 52 -80 66 -80 60 0 -3 27 -27 59 -53 33
-27 58 -50 56 -52 -7 -7 -125 100 -125 113 0 7 -7 16 -16 19 -15 6 -15 4 -3
-11 8 -9 -13 3 -46 27 -33 25 -98 69 -145 99 -47 29 -77 51 -67 48 11 -4 16
-3 12 4 -4 6 -13 8 -21 5 -7 -3 -57 18 -111 45 -54 28 -90 48 -80 45 11 -4 16
-2 12 5 -4 6 -13 8 -21 5 -8 -3 -62 11 -122 31 -232 77 -219 76 -867 79 -459
2 -598 0 -668 -11z m829 -650 c23 -308 44 -588 47 -621 l6 -62 -119 -91 c-65
-50 -124 -91 -130 -91 -6 0 -65 41 -131 92 -119 91 -120 92 -115 128 3 19 24
294 47 610 22 316 43 581 45 588 3 10 39 12 156 10 l153 -3 41 -560z"/>
<path d="M1305 1574 c-161 -29 -321 -90 -468 -177 -85 -51 -92 -54 -81 -34 4
7 3 9 -2 4 -5 -5 -9 -12 -9 -16 0 -5 -35 -35 -77 -67 -42 -32 -105 -84 -140
-114 -35 -30 -54 -43 -43 -30 l20 25 -22 -19 c-13 -10 -21 -22 -18 -26 6 -9
-40 -52 -47 -45 -3 3 -20 -13 -38 -37 l-32 -43 31 33 c51 53 36 28 -31 -53
-35 -41 -68 -75 -74 -75 -7 0 -15 -7 -18 -16 -6 -15 -4 -15 11 -3 16 13 17 12
4 -3 -7 -10 -20 -18 -27 -18 -8 0 -14 -5 -14 -11 0 -5 5 -7 10 -4 6 3 1 -10
-11 -29 -12 -20 -23 -36 -26 -36 -2 0 -1 5 2 10 3 5 1 10 -6 10 -6 0 -9 -8 -6
-20 3 -11 0 -23 -5 -27 -7 -4 -8 -1 -3 8 7 12 6 12 -9 0 -9 -8 -15 -22 -13
-32 6 -21 -8 -44 -25 -44 -7 0 -13 -10 -12 -23 0 -12 -2 -20 -4 -17 -3 3 -15
-12 -27 -32 -28 -50 -37 -76 -25 -68 14 9 12 -1 -5 -35 -9 -17 -21 -30 -28
-30 -9 0 -9 -2 -1 -8 9 -5 6 -20 -8 -52 -17 -41 -20 -32 -3 15 6 20 6 20 -6 0
-7 -11 -14 -46 -16 -77 l-3 -58 1173 0 1172 0 17 53 c16 48 17 39 2 -23 -5
-23 -4 -23 7 -6 7 11 13 39 13 62 1 23 5 40 10 37 4 -3 5 5 1 17 -4 14 -3 20
3 16 5 -3 17 13 27 36 10 26 13 44 7 46 -15 5 40 132 57 132 8 0 11 7 8 20 -3
13 -1 18 6 13 7 -4 8 0 4 11 -5 11 -3 15 5 10 8 -5 9 -2 5 10 -4 10 -3 15 3
11 12 -8 33 33 26 51 -3 9 -1 12 4 9 10 -6 11 -5 15 33 3 25 11 37 27 37 6 0
15 10 19 23 6 16 5 21 -2 16 -8 -4 -7 0 0 15 7 11 14 21 17 21 3 0 2 -5 -2
-12 -5 -7 -3 -8 5 -4 7 5 10 14 7 22 -3 7 0 16 6 20 7 5 8 2 3 -7 -8 -12 -6
-12 8 0 19 15 23 36 5 25 -7 -4 -8 -3 -4 4 4 7 14 12 22 12 10 0 14 8 12 23
-2 15 4 25 20 32 12 5 22 13 22 18 0 4 -5 5 -12 1 -7 -4 -8 -3 -4 4 4 7 13 12
21 12 7 0 16 7 19 16 6 15 4 15 -11 3 -16 -13 -17 -12 -4 4 7 9 19 17 26 17 7
0 16 7 19 16 6 15 4 15 -11 3 -17 -13 -17 -13 -3 6 47 64 94 115 105 115 7 0
18 7 25 15 13 15 2 21 -16 8 -5 -5 -3 -1 6 7 22 23 22 35 -2 56 -12 11 -18 13
-14 7 11 -19 4 -17 -70 27 -67 39 -82 55 -24 25 17 -9 30 -13 30 -11 0 9 -45
29 -70 32 -14 1 -61 18 -105 38 -100 44 -229 81 -329 95 -121 17 -901 13
-1001 -5z m639 -86 c3 -13 19 -219 36 -458 17 -239 33 -449 35 -466 5 -29 0
-35 -93 -107 l-99 -76 -79 61 c-44 33 -87 66 -98 73 -18 13 -18 24 13 442 18
235 35 456 38 491 l6 62 118 0 c115 0 119 -1 123 -22z"/>
<path d="M7259 1574 c-98 -17 -225 -57 -318 -100 -40 -19 -77 -31 -82 -28 -9
5 -69 -22 -69 -32 0 -2 13 2 30 11 58 30 43 14 -23 -25 -74 -43 -82 -46 -71
-27 4 6 -2 4 -14 -7 -27 -23 -26 -28 25 -84 23 -25 40 -50 37 -54 -7 -10 19
-48 32 -48 6 0 18 -8 25 -17 13 -16 12 -17 -4 -4 -15 12 -17 12 -11 -3 3 -9
12 -16 19 -16 8 0 24 -14 36 -32 13 -17 18 -28 11 -24 -7 4 -12 3 -12 -1 0 -5
10 -13 23 -18 15 -7 21 -17 19 -32 -2 -15 2 -23 12 -23 8 0 18 -5 22 -12 4 -7
3 -8 -4 -4 -18 11 -14 -10 5 -25 14 -12 16 -12 8 0 -5 9 -4 12 3 8 5 -4 8 -16
5 -27 -3 -12 0 -20 6 -20 7 0 9 4 6 10 -3 5 -4 10 -1 10 3 0 10 -10 17 -21 7
-15 8 -19 0 -15 -7 5 -8 0 -2 -16 4 -13 14 -23 20 -23 14 0 32 -26 25 -36 -6
-10 17 -59 26 -54 3 2 6 -6 6 -18 -1 -12 4 -21 11 -20 7 2 10 -3 7 -11 -3 -8
4 -24 15 -35 13 -13 16 -21 8 -25 -7 -3 -6 -5 3 -5 9 -1 21 -13 26 -28 6 -16
21 -52 33 -81 12 -29 17 -51 11 -47 -5 3 -10 13 -10 22 0 9 -3 13 -6 10 -11
-10 26 -98 38 -91 6 4 8 -2 3 -16 -5 -14 -3 -20 3 -16 9 6 42 -83 42 -113 0
-8 330 -11 1175 -11 l1175 0 -3 58 c-2 31 -9 66 -16 77 -12 20 -12 20 -6 0 17
-47 14 -56 -3 -15 -11 25 -16 47 -11 50 4 3 4 12 -1 20 -6 8 -10 11 -10 5 -1
-11 -29 35 -30 48 0 5 5 5 10 2 6 -4 4 8 -3 27 -8 18 -19 32 -25 31 -7 -2 -9
4 -5 14 4 11 3 14 -5 9 -8 -4 -10 -2 -6 8 7 18 -14 59 -26 51 -12 -7 -28 24
-23 45 2 9 -4 23 -13 31 -15 12 -16 12 -9 0 5 -9 4 -12 -3 -8 -5 4 -8 16 -5
27 3 12 0 20 -6 20 -7 0 -9 -5 -6 -10 3 -5 4 -10 1 -10 -3 0 -10 10 -17 21 -8
15 -8 19 0 15 6 -4 11 -3 11 1 0 5 -10 13 -22 18 -13 6 -22 16 -20 23 3 17
-16 52 -27 49 -5 -1 -37 32 -71 73 -35 41 -48 62 -30 45 l34 -30 -33 43 c-18
23 -38 42 -45 42 -13 0 -44 29 -45 43 -1 4 -4 7 -8 8 -14 1 -43 31 -38 39 2 4
-15 22 -38 40 l-42 32 37 -36 c21 -20 34 -36 30 -36 -5 0 -19 12 -33 26 -13
14 -60 53 -104 86 -44 34 -80 64 -80 69 0 4 -4 11 -9 16 -5 5 -6 2 -1 -6 5 -9
3 -12 -6 -9 -8 3 -14 11 -14 18 0 7 -7 15 -15 17 -13 4 -13 3 0 -6 36 -26 -7
-8 -70 29 -138 81 -292 137 -454 165 -121 21 -911 20 -1027 -1z m644 -126 c3
-35 20 -256 38 -491 31 -418 31 -429 13 -442 -11 -7 -54 -40 -98 -73 l-79 -61
-99 76 c-93 72 -98 78 -93 107 2 17 18 227 35 466 17 239 33 445 36 458 4 21
8 22 123 22 l118 0 6 -62z"/>
<path d="M583 283 c323 -2 851 -2 1175 0 323 1 58 2 -588 2 -646 0 -911 -1
-587 -2z"/>
<path d="M3638 283 c639 -2 1685 -2 2325 0 639 1 116 2 -1163 2 -1279 0 -1802
-1 -1162 -2z"/>
<path d="M7843 283 c323 -2 851 -2 1175 0 323 1 58 2 -588 2 -646 0 -911 -1
-587 -2z"/>
</g>
</svg>
