<?xml version="1.0" standalone="no"?>
<!DOCTYPE svg PUBLIC "-//W3C//DTD SVG 20010904//EN"
 "http://www.w3.org/TR/2001/REC-SVG-20010904/DTD/svg10.dtd">
<svg version="1.0" xmlns="http://www.w3.org/2000/svg"
 width="720.000000pt" height="720.000000pt" viewBox="0 0 720.000000 720.000000"
 preserveAspectRatio="xMidYMid meet">
<metadata>
Created by potrace 1.15, written by Peter Selinger 2001-2017
</metadata>
<g transform="translate(0.000000,720.000000) scale(0.100000,-0.100000)"
fill="#fff" stroke="none">
<path d="M3385 5340 c-192 -39 -351 -115 -495 -237 -506 -427 -531 -1188 -53
-1649 l73 -70 0 -97 c0 -124 23 -189 92 -261 l49 -51 -15 -33 c-22 -45 -20
-115 4 -161 19 -38 19 -39 0 -77 -36 -70 -24 -153 31 -210 28 -29 29 -33 20
-75 -21 -93 32 -187 120 -210 l44 -12 1 -77 c1 -137 64 -221 194 -261 60 -18
89 -21 178 -17 129 6 192 29 250 92 49 53 66 102 66 192 l0 71 45 12 c87 23
139 115 121 211 -8 42 -6 47 20 75 16 17 34 43 39 58 17 45 13 118 -8 154 -20
31 -20 32 0 72 24 50 26 137 3 169 -15 22 -13 25 35 77 69 76 91 139 91 262
l0 96 73 71 c144 140 250 315 302 499 163 577 -164 1178 -740 1360 -155 49
-377 60 -540 27z m457 -124 c180 -46 342 -140 469 -273 121 -128 207 -279 250
-440 32 -118 37 -320 11 -443 -43 -207 -120 -347 -278 -507 l-112 -112 -4
-123 c-4 -145 -22 -190 -90 -235 -39 -26 -50 -28 -165 -31 l-123 -4 0 456 0
456 23 0 c41 0 126 47 147 82 26 41 19 92 -16 128 -20 20 -36 25 -94 28 -66 4
-71 3 -100 -26 -27 -28 -30 -36 -30 -96 l0 -66 -130 0 -130 0 0 66 c0 60 -3
68 -30 96 -29 29 -34 30 -100 26 -58 -3 -74 -8 -94 -28 -35 -36 -42 -87 -16
-128 21 -35 106 -82 148 -82 l22 0 0 -455 0 -455 -118 0 c-114 0 -120 1 -165
29 -73 47 -90 91 -95 239 l-4 123 -112 112 c-215 217 -304 439 -293 737 6 161
27 250 92 387 144 306 431 516 767 563 98 14 264 3 370 -24z m-112 -1721 l0
-445 -130 0 -130 0 0 445 0 445 130 0 130 0 0 -445z m315 -590 c14 -13 25 -31
25 -40 0 -9 -11 -27 -25 -40 l-24 -25 -425 0 c-425 0 -425 0 -446 22 -27 30
-25 62 6 87 26 20 37 21 446 21 l419 0 24 -25z m0 -239 c11 -8 18 -26 18 -46
0 -61 7 -60 -469 -60 l-433 0 -15 22 c-21 30 -20 54 4 78 19 19 33 20 448 20
345 0 432 -3 447 -14z m-65 -246 c21 -21 23 -32 14 -66 -11 -41 -39 -44 -398
-44 -332 0 -344 1 -370 21 -31 25 -34 61 -6 89 19 19 33 20 380 20 347 0 361
-1 380 -20z m-170 -240 c27 -27 27 -103 0 -148 -33 -54 -96 -77 -210 -76 -114
0 -178 23 -210 76 -27 45 -27 121 0 148 19 19 33 20 210 20 177 0 191 -1 210
-20z"/>
</g>
</svg>
